<svg width="1440" height="346" viewBox="0 0 1440 346" fill="none" xmlns="http://www.w3.org/2000/svg">
<path fill-rule="evenodd" clip-rule="evenodd" d="M0 346L34 324C69 302 137 259 206 230C274 202 343 187 411 209C480 230 549 288 617 274C686 259 754 173 823 144C891 115 960 144 1029 173C1097 202 1166 230 1234 223C1303 216 1371 173 1406 151L1440 130V0H1406C1371 0 1303 0 1234 0C1166 0 1097 0 1029 0C960 0 891 0 823 0C754 0 686 0 617 0C549 0 480 0 411 0C343 0 274 0 206 0C137 0 69 0 34 0H0V346Z" fill="white"/>
</svg>
